<svg xmlns="http://www.w3.org/2000/svg" version="1.1" xmlns:xlink="http://www.w3.org/1999/xlink" xmlns:svgjs="http://svgjs.com/svgjs" width="1440" height="560" preserveAspectRatio="none" viewBox="0 0 1440 560"><g mask="url(&quot;#SvgjsMask1006&quot;)" fill="none"><path d="M-38.85 351.94L-38.85 351.94" stroke="rgba(65, 65, 65, 1)" stroke-width="1.5"></path><path d="M-38.85 351.94L93.07 368.17" stroke="rgba(65, 65, 65, 1)" stroke-width="1.5"></path><path d="M-66.24 513.75L-66.24 513.75" stroke="rgba(65, 65, 65, 1)" stroke-width="1.5"></path><path d="M-66.24 513.75L-38.85 351.94" stroke="rgba(65, 65, 65, 1)" stroke-width="1.5"></path><path d="M-66.24 513.75L-57.62 682.98" stroke="rgba(65, 65, 65, 1)" stroke-width="1.5"></path><path d="M-66.24 513.75L107.24 494.85" stroke="rgba(65, 65, 65, 1)" stroke-width="1.5"></path><path d="M-66.24 513.75L93.07 368.17" stroke="rgba(65, 65, 65, 1)" stroke-width="1.5"></path><path d="M-66.24 513.75L105.44 711.34" stroke="rgba(65, 65, 65, 1)" stroke-width="1.5"></path><path d="M-57.62 682.98L-57.62 682.98" stroke="rgba(65, 65, 65, 1)" stroke-width="1.5"></path><path d="M-57.62 682.98L105.44 711.34" stroke="rgba(65, 65, 65, 1)" stroke-width="1.5"></path><path d="M-57.62 682.98L107.24 494.85" stroke="rgba(65, 65, 65, 1)" stroke-width="1.5"></path><path d="M-57.62 682.98L216.61 702.75" stroke="rgba(65, 65, 65, 1)" stroke-width="1.5"></path><path d="M-57.62 682.98L-38.85 351.94" stroke="rgba(65, 65, 65, 1)" stroke-width="1.5"></path><path d="M93.07 368.17L93.07 368.17" stroke="rgba(65, 65, 65, 1)" stroke-width="1.5"></path><path d="M93.07 368.17L200.96 339.68" stroke="rgba(65, 65, 65, 1)" stroke-width="1.5"></path><path d="M93.07 368.17L107.24 494.85" stroke="rgba(65, 65, 65, 1)" stroke-width="1.5"></path><path d="M107.24 494.85L107.24 494.85" stroke="rgba(65, 65, 65, 1)" stroke-width="1.5"></path><path d="M107.24 494.85L200.96 339.68" stroke="rgba(65, 65, 65, 1)" stroke-width="1.5"></path><path d="M105.44 711.34L105.44 711.34" stroke="rgba(65, 65, 65, 1)" stroke-width="1.5"></path><path d="M105.44 711.34L216.61 702.75" stroke="rgba(65, 65, 65, 1)" stroke-width="1.5"></path><path d="M105.44 711.34L107.24 494.85" stroke="rgba(65, 65, 65, 1)" stroke-width="1.5"></path><path d="M105.44 711.34L350.67 709.77" stroke="rgba(65, 65, 65, 1)" stroke-width="1.5"></path><path d="M105.44 711.34L402.93 543.7" stroke="rgba(65, 65, 65, 1)" stroke-width="1.5"></path><path d="M200.96 339.68L200.96 339.68" stroke="rgba(65, 65, 65, 1)" stroke-width="1.5"></path><path d="M200.96 339.68L370.86 369.45" stroke="rgba(65, 65, 65, 1)" stroke-width="1.5"></path><path d="M200.96 339.68L-38.85 351.94" stroke="rgba(65, 65, 65, 1)" stroke-width="1.5"></path><path d="M200.96 339.68L402.93 543.7" stroke="rgba(65, 65, 65, 1)" stroke-width="1.5"></path><path d="M200.96 339.68L-66.24 513.75" stroke="rgba(65, 65, 65, 1)" stroke-width="1.5"></path><path d="M216.61 702.75L216.61 702.75" stroke="rgba(65, 65, 65, 1)" stroke-width="1.5"></path><path d="M216.61 702.75L350.67 709.77" stroke="rgba(65, 65, 65, 1)" stroke-width="1.5"></path><path d="M216.61 702.75L107.24 494.85" stroke="rgba(65, 65, 65, 1)" stroke-width="1.5"></path><path d="M370.86 369.45L370.86 369.45" stroke="rgba(65, 65, 65, 1)" stroke-width="1.5"></path><path d="M370.86 369.45L536.9 364.76" stroke="rgba(65, 65, 65, 1)" stroke-width="1.5"></path><path d="M370.86 369.45L402.93 543.7" stroke="rgba(65, 65, 65, 1)" stroke-width="1.5"></path><path d="M370.86 369.45L93.07 368.17" stroke="rgba(65, 65, 65, 1)" stroke-width="1.5"></path><path d="M402.93 543.7L402.93 543.7" stroke="rgba(65, 65, 65, 1)" stroke-width="1.5"></path><path d="M402.93 543.7L350.67 709.77" stroke="rgba(65, 65, 65, 1)" stroke-width="1.5"></path><path d="M402.93 543.7L554.85 640.6" stroke="rgba(65, 65, 65, 1)" stroke-width="1.5"></path><path d="M402.93 543.7L536.9 364.76" stroke="rgba(65, 65, 65, 1)" stroke-width="1.5"></path><path d="M402.93 543.7L216.61 702.75" stroke="rgba(65, 65, 65, 1)" stroke-width="1.5"></path><path d="M350.67 709.77L350.67 709.77" stroke="rgba(65, 65, 65, 1)" stroke-width="1.5"></path><path d="M350.67 709.77L554.85 640.6" stroke="rgba(65, 65, 65, 1)" stroke-width="1.5"></path><path d="M350.67 709.77L647.69 659.67" stroke="rgba(65, 65, 65, 1)" stroke-width="1.5"></path><path d="M350.67 709.77L107.24 494.85" stroke="rgba(65, 65, 65, 1)" stroke-width="1.5"></path><path d="M536.9 364.76L536.9 364.76" stroke="rgba(65, 65, 65, 1)" stroke-width="1.5"></path><path d="M536.9 364.76L658.9 396.52" stroke="rgba(65, 65, 65, 1)" stroke-width="1.5"></path><path d="M536.9 364.76L688.79 207.07" stroke="rgba(65, 65, 65, 1)" stroke-width="1.5"></path><path d="M536.9 364.76L554.85 640.6" stroke="rgba(65, 65, 65, 1)" stroke-width="1.5"></path><path d="M554.85 640.6L554.85 640.6" stroke="rgba(65, 65, 65, 1)" stroke-width="1.5"></path><path d="M554.85 640.6L647.69 659.67" stroke="rgba(65, 65, 65, 1)" stroke-width="1.5"></path><path d="M554.85 640.6L658.9 396.52" stroke="rgba(65, 65, 65, 1)" stroke-width="1.5"></path><path d="M554.85 640.6L803.94 521.54" stroke="rgba(65, 65, 65, 1)" stroke-width="1.5"></path><path d="M688.79 207.07L688.79 207.07" stroke="rgba(65, 65, 65, 1)" stroke-width="1.5"></path><path d="M688.79 207.07L797.46 229.48" stroke="rgba(65, 65, 65, 1)" stroke-width="1.5"></path><path d="M688.79 207.07L658.9 396.52" stroke="rgba(65, 65, 65, 1)" stroke-width="1.5"></path><path d="M688.79 207.07L824.7 372.6" stroke="rgba(65, 65, 65, 1)" stroke-width="1.5"></path><path d="M688.79 207.07L945.99 356.57" stroke="rgba(65, 65, 65, 1)" stroke-width="1.5"></path><path d="M688.79 207.07L1005.91 200.46" stroke="rgba(65, 65, 65, 1)" stroke-width="1.5"></path><path d="M658.9 396.52L658.9 396.52" stroke="rgba(65, 65, 65, 1)" stroke-width="1.5"></path><path d="M658.9 396.52L824.7 372.6" stroke="rgba(65, 65, 65, 1)" stroke-width="1.5"></path><path d="M658.9 396.52L803.94 521.54" stroke="rgba(65, 65, 65, 1)" stroke-width="1.5"></path><path d="M647.69 659.67L647.69 659.67" stroke="rgba(65, 65, 65, 1)" stroke-width="1.5"></path><path d="M647.69 659.67L850.15 659.52" stroke="rgba(65, 65, 65, 1)" stroke-width="1.5"></path><path d="M797.46 229.48L797.46 229.48" stroke="rgba(65, 65, 65, 1)" stroke-width="1.5"></path><path d="M797.46 229.48L824.7 372.6" stroke="rgba(65, 65, 65, 1)" stroke-width="1.5"></path><path d="M824.7 372.6L824.7 372.6" stroke="rgba(65, 65, 65, 1)" stroke-width="1.5"></path><path d="M824.7 372.6L945.99 356.57" stroke="rgba(65, 65, 65, 1)" stroke-width="1.5"></path><path d="M824.7 372.6L803.94 521.54" stroke="rgba(65, 65, 65, 1)" stroke-width="1.5"></path><path d="M824.7 372.6L950.8 561.17" stroke="rgba(65, 65, 65, 1)" stroke-width="1.5"></path><path d="M803.94 521.54L803.94 521.54" stroke="rgba(65, 65, 65, 1)" stroke-width="1.5"></path><path d="M803.94 521.54L850.15 659.52" stroke="rgba(65, 65, 65, 1)" stroke-width="1.5"></path><path d="M803.94 521.54L950.8 561.17" stroke="rgba(65, 65, 65, 1)" stroke-width="1.5"></path><path d="M803.94 521.54L647.69 659.67" stroke="rgba(65, 65, 65, 1)" stroke-width="1.5"></path><path d="M850.15 659.52L850.15 659.52" stroke="rgba(65, 65, 65, 1)" stroke-width="1.5"></path><path d="M850.15 659.52L950.8 561.17" stroke="rgba(65, 65, 65, 1)" stroke-width="1.5"></path><path d="M850.15 659.52L1009.42 680.58" stroke="rgba(65, 65, 65, 1)" stroke-width="1.5"></path><path d="M850.15 659.52L824.7 372.6" stroke="rgba(65, 65, 65, 1)" stroke-width="1.5"></path><path d="M956.06 -107.11L956.06 -107.11" stroke="rgba(65, 65, 65, 1)" stroke-width="1.5"></path><path d="M956.06 -107.11L1115.51 -94.2" stroke="rgba(65, 65, 65, 1)" stroke-width="1.5"></path><path d="M956.06 -107.11L1113.98 53.92" stroke="rgba(65, 65, 65, 1)" stroke-width="1.5"></path><path d="M956.06 -107.11L1005.91 200.46" stroke="rgba(65, 65, 65, 1)" stroke-width="1.5"></path><path d="M956.06 -107.11L1273.61 -59.55" stroke="rgba(65, 65, 65, 1)" stroke-width="1.5"></path><path d="M1005.91 200.46L1005.91 200.46" stroke="rgba(65, 65, 65, 1)" stroke-width="1.5"></path><path d="M1005.91 200.46L1149.87 251.64" stroke="rgba(65, 65, 65, 1)" stroke-width="1.5"></path><path d="M1005.91 200.46L945.99 356.57" stroke="rgba(65, 65, 65, 1)" stroke-width="1.5"></path><path d="M1005.91 200.46L1113.98 53.92" stroke="rgba(65, 65, 65, 1)" stroke-width="1.5"></path><path d="M1005.91 200.46L797.46 229.48" stroke="rgba(65, 65, 65, 1)" stroke-width="1.5"></path><path d="M1005.91 200.46L1088.19 406.61" stroke="rgba(65, 65, 65, 1)" stroke-width="1.5"></path><path d="M945.99 356.57L945.99 356.57" stroke="rgba(65, 65, 65, 1)" stroke-width="1.5"></path><path d="M945.99 356.57L1088.19 406.61" stroke="rgba(65, 65, 65, 1)" stroke-width="1.5"></path><path d="M945.99 356.57L797.46 229.48" stroke="rgba(65, 65, 65, 1)" stroke-width="1.5"></path><path d="M945.99 356.57L950.8 561.17" stroke="rgba(65, 65, 65, 1)" stroke-width="1.5"></path><path d="M950.8 561.17L950.8 561.17" stroke="rgba(65, 65, 65, 1)" stroke-width="1.5"></path><path d="M950.8 561.17L1009.42 680.58" stroke="rgba(65, 65, 65, 1)" stroke-width="1.5"></path><path d="M1009.42 680.58L1009.42 680.58" stroke="rgba(65, 65, 65, 1)" stroke-width="1.5"></path><path d="M1009.42 680.58L1162.46 692.87" stroke="rgba(65, 65, 65, 1)" stroke-width="1.5"></path><path d="M1009.42 680.58L1122.08 513.38" stroke="rgba(65, 65, 65, 1)" stroke-width="1.5"></path><path d="M1009.42 680.58L803.94 521.54" stroke="rgba(65, 65, 65, 1)" stroke-width="1.5"></path><path d="M1009.42 680.58L1088.19 406.61" stroke="rgba(65, 65, 65, 1)" stroke-width="1.5"></path><path d="M1115.51 -94.2L1115.51 -94.2" stroke="rgba(65, 65, 65, 1)" stroke-width="1.5"></path><path d="M1115.51 -94.2L1113.98 53.92" stroke="rgba(65, 65, 65, 1)" stroke-width="1.5"></path><path d="M1113.98 53.92L1113.98 53.92" stroke="rgba(65, 65, 65, 1)" stroke-width="1.5"></path><path d="M1113.98 53.92L1273.67 83.86" stroke="rgba(65, 65, 65, 1)" stroke-width="1.5"></path><path d="M1149.87 251.64L1149.87 251.64" stroke="rgba(65, 65, 65, 1)" stroke-width="1.5"></path><path d="M1149.87 251.64L1312.43 242.47" stroke="rgba(65, 65, 65, 1)" stroke-width="1.5"></path><path d="M1149.87 251.64L1088.19 406.61" stroke="rgba(65, 65, 65, 1)" stroke-width="1.5"></path><path d="M1149.87 251.64L1289.27 355.35" stroke="rgba(65, 65, 65, 1)" stroke-width="1.5"></path><path d="M1149.87 251.64L1113.98 53.92" stroke="rgba(65, 65, 65, 1)" stroke-width="1.5"></path><path d="M1149.87 251.64L1273.67 83.86" stroke="rgba(65, 65, 65, 1)" stroke-width="1.5"></path><path d="M1088.19 406.61L1088.19 406.61" stroke="rgba(65, 65, 65, 1)" stroke-width="1.5"></path><path d="M1088.19 406.61L1122.08 513.38" stroke="rgba(65, 65, 65, 1)" stroke-width="1.5"></path><path d="M1122.08 513.38L1122.08 513.38" stroke="rgba(65, 65, 65, 1)" stroke-width="1.5"></path><path d="M1122.08 513.38L950.8 561.17" stroke="rgba(65, 65, 65, 1)" stroke-width="1.5"></path><path d="M1122.08 513.38L1300.74 496.47" stroke="rgba(65, 65, 65, 1)" stroke-width="1.5"></path><path d="M1122.08 513.38L1162.46 692.87" stroke="rgba(65, 65, 65, 1)" stroke-width="1.5"></path><path d="M1122.08 513.38L1289.27 355.35" stroke="rgba(65, 65, 65, 1)" stroke-width="1.5"></path><path d="M1162.46 692.87L1162.46 692.87" stroke="rgba(65, 65, 65, 1)" stroke-width="1.5"></path><path d="M1162.46 692.87L1308.88 712.16" stroke="rgba(65, 65, 65, 1)" stroke-width="1.5"></path><path d="M1162.46 692.87L1397.82 674.92" stroke="rgba(65, 65, 65, 1)" stroke-width="1.5"></path><path d="M1162.46 692.87L1300.74 496.47" stroke="rgba(65, 65, 65, 1)" stroke-width="1.5"></path><path d="M1273.61 -59.55L1273.61 -59.55" stroke="rgba(65, 65, 65, 1)" stroke-width="1.5"></path><path d="M1273.61 -59.55L1273.67 83.86" stroke="rgba(65, 65, 65, 1)" stroke-width="1.5"></path><path d="M1273.61 -59.55L1417.84 -46.84" stroke="rgba(65, 65, 65, 1)" stroke-width="1.5"></path><path d="M1273.61 -59.55L1115.51 -94.2" stroke="rgba(65, 65, 65, 1)" stroke-width="1.5"></path><path d="M1273.61 -59.55L1113.98 53.92" stroke="rgba(65, 65, 65, 1)" stroke-width="1.5"></path><path d="M1273.61 -59.55L1457.06 40.87" stroke="rgba(65, 65, 65, 1)" stroke-width="1.5"></path><path d="M1273.67 83.86L1273.67 83.86" stroke="rgba(65, 65, 65, 1)" stroke-width="1.5"></path><path d="M1312.43 242.47L1312.43 242.47" stroke="rgba(65, 65, 65, 1)" stroke-width="1.5"></path><path d="M1312.43 242.47L1289.27 355.35" stroke="rgba(65, 65, 65, 1)" stroke-width="1.5"></path><path d="M1312.43 242.47L1443.12 204.96" stroke="rgba(65, 65, 65, 1)" stroke-width="1.5"></path><path d="M1289.27 355.35L1289.27 355.35" stroke="rgba(65, 65, 65, 1)" stroke-width="1.5"></path><path d="M1289.27 355.35L1401.74 350.83" stroke="rgba(65, 65, 65, 1)" stroke-width="1.5"></path><path d="M1289.27 355.35L1300.74 496.47" stroke="rgba(65, 65, 65, 1)" stroke-width="1.5"></path><path d="M1289.27 355.35L1088.19 406.61" stroke="rgba(65, 65, 65, 1)" stroke-width="1.5"></path><path d="M1289.27 355.35L1443.12 204.96" stroke="rgba(65, 65, 65, 1)" stroke-width="1.5"></path><path d="M1300.74 496.47L1300.74 496.47" stroke="rgba(65, 65, 65, 1)" stroke-width="1.5"></path><path d="M1300.74 496.47L1396.26 555.06" stroke="rgba(65, 65, 65, 1)" stroke-width="1.5"></path><path d="M1300.74 496.47L1401.74 350.83" stroke="rgba(65, 65, 65, 1)" stroke-width="1.5"></path><path d="M1300.74 496.47L1397.82 674.92" stroke="rgba(65, 65, 65, 1)" stroke-width="1.5"></path><path d="M1300.74 496.47L1308.88 712.16" stroke="rgba(65, 65, 65, 1)" stroke-width="1.5"></path><path d="M1308.88 712.16L1308.88 712.16" stroke="rgba(65, 65, 65, 1)" stroke-width="1.5"></path><path d="M1308.88 712.16L1397.82 674.92" stroke="rgba(65, 65, 65, 1)" stroke-width="1.5"></path><path d="M1417.84 -46.84L1417.84 -46.84" stroke="rgba(65, 65, 65, 1)" stroke-width="1.5"></path><path d="M1417.84 -46.84L1457.06 40.87" stroke="rgba(65, 65, 65, 1)" stroke-width="1.5"></path><path d="M1417.84 -46.84L1541.74 -64.2" stroke="rgba(65, 65, 65, 1)" stroke-width="1.5"></path><path d="M1417.84 -46.84L1541.29 85.41" stroke="rgba(65, 65, 65, 1)" stroke-width="1.5"></path><path d="M1417.84 -46.84L1273.67 83.86" stroke="rgba(65, 65, 65, 1)" stroke-width="1.5"></path><path d="M1417.84 -46.84L1443.12 204.96" stroke="rgba(65, 65, 65, 1)" stroke-width="1.5"></path><path d="M1457.06 40.87L1457.06 40.87" stroke="rgba(65, 65, 65, 1)" stroke-width="1.5"></path><path d="M1457.06 40.87L1541.29 85.41" stroke="rgba(65, 65, 65, 1)" stroke-width="1.5"></path><path d="M1457.06 40.87L1541.74 -64.2" stroke="rgba(65, 65, 65, 1)" stroke-width="1.5"></path><path d="M1457.06 40.87L1443.12 204.96" stroke="rgba(65, 65, 65, 1)" stroke-width="1.5"></path><path d="M1443.12 204.96L1443.12 204.96" stroke="rgba(65, 65, 65, 1)" stroke-width="1.5"></path><path d="M1443.12 204.96L1545.86 191.94" stroke="rgba(65, 65, 65, 1)" stroke-width="1.5"></path><path d="M1443.12 204.96L1401.74 350.83" stroke="rgba(65, 65, 65, 1)" stroke-width="1.5"></path><path d="M1401.74 350.83L1401.74 350.83" stroke="rgba(65, 65, 65, 1)" stroke-width="1.5"></path><path d="M1401.74 350.83L1312.43 242.47" stroke="rgba(65, 65, 65, 1)" stroke-width="1.5"></path><path d="M1401.74 350.83L1561.21 405.21" stroke="rgba(65, 65, 65, 1)" stroke-width="1.5"></path><path d="M1401.74 350.83L1396.26 555.06" stroke="rgba(65, 65, 65, 1)" stroke-width="1.5"></path><path d="M1396.26 555.06L1396.26 555.06" stroke="rgba(65, 65, 65, 1)" stroke-width="1.5"></path><path d="M1396.26 555.06L1397.82 674.92" stroke="rgba(65, 65, 65, 1)" stroke-width="1.5"></path><path d="M1396.26 555.06L1542.09 547.67" stroke="rgba(65, 65, 65, 1)" stroke-width="1.5"></path><path d="M1396.26 555.06L1308.88 712.16" stroke="rgba(65, 65, 65, 1)" stroke-width="1.5"></path><path d="M1397.82 674.92L1397.82 674.92" stroke="rgba(65, 65, 65, 1)" stroke-width="1.5"></path><path d="M1397.82 674.92L1575.37 663.32" stroke="rgba(65, 65, 65, 1)" stroke-width="1.5"></path><path d="M1541.74 -64.2L1541.74 -64.2" stroke="rgba(65, 65, 65, 1)" stroke-width="1.5"></path><path d="M1541.29 85.41L1541.29 85.41" stroke="rgba(65, 65, 65, 1)" stroke-width="1.5"></path><path d="M1541.29 85.41L1545.86 191.94" stroke="rgba(65, 65, 65, 1)" stroke-width="1.5"></path><path d="M1541.29 85.41L1541.74 -64.2" stroke="rgba(65, 65, 65, 1)" stroke-width="1.5"></path><path d="M1541.29 85.41L1443.12 204.96" stroke="rgba(65, 65, 65, 1)" stroke-width="1.5"></path><path d="M1545.86 191.94L1545.86 191.94" stroke="rgba(65, 65, 65, 1)" stroke-width="1.5"></path><path d="M1545.86 191.94L1457.06 40.87" stroke="rgba(65, 65, 65, 1)" stroke-width="1.5"></path><path d="M1545.86 191.94L1561.21 405.21" stroke="rgba(65, 65, 65, 1)" stroke-width="1.5"></path><path d="M1545.86 191.94L1401.74 350.83" stroke="rgba(65, 65, 65, 1)" stroke-width="1.5"></path><path d="M1561.21 405.21L1561.21 405.21" stroke="rgba(65, 65, 65, 1)" stroke-width="1.5"></path><path d="M1561.21 405.21L1542.09 547.67" stroke="rgba(65, 65, 65, 1)" stroke-width="1.5"></path><path d="M1542.09 547.67L1542.09 547.67" stroke="rgba(65, 65, 65, 1)" stroke-width="1.5"></path><path d="M1542.09 547.67L1575.37 663.32" stroke="rgba(65, 65, 65, 1)" stroke-width="1.5"></path><path d="M1542.09 547.67L1397.82 674.92" stroke="rgba(65, 65, 65, 1)" stroke-width="1.5"></path><path d="M1542.09 547.67L1401.74 350.83" stroke="rgba(65, 65, 65, 1)" stroke-width="1.5"></path><path d="M1542.09 547.67L1300.74 496.47" stroke="rgba(65, 65, 65, 1)" stroke-width="1.5"></path><path d="M1575.37 663.32L1575.37 663.32" stroke="rgba(65, 65, 65, 1)" stroke-width="1.5"></path><circle r="5" cx="-38.85" cy="351.94" fill="rgba(65, 65, 65, 1)"></circle><circle r="5" cx="-66.24" cy="513.75" fill="rgba(65, 65, 65, 1)"></circle><circle r="5" cx="-57.62" cy="682.98" fill="rgba(65, 65, 65, 1)"></circle><circle r="5" cx="93.07" cy="368.17" fill="rgba(65, 65, 65, 1)"></circle><circle r="5" cx="107.24" cy="494.85" fill="rgba(65, 65, 65, 1)"></circle><circle r="5" cx="105.44" cy="711.34" fill="rgba(65, 65, 65, 1)"></circle><circle r="5" cx="200.96" cy="339.68" fill="rgba(65, 65, 65, 1)"></circle><circle r="5" cx="216.61" cy="702.75" fill="rgba(65, 65, 65, 1)"></circle><circle r="5" cx="370.86" cy="369.45" fill="rgba(65, 65, 65, 1)"></circle><circle r="5" cx="402.93" cy="543.7" fill="rgba(65, 65, 65, 1)"></circle><circle r="5" cx="350.67" cy="709.77" fill="rgba(65, 65, 65, 1)"></circle><circle r="5" cx="536.9" cy="364.76" fill="rgba(65, 65, 65, 1)"></circle><circle r="5" cx="554.85" cy="640.6" fill="rgba(65, 65, 65, 1)"></circle><circle r="5" cx="688.79" cy="207.07" fill="rgba(65, 65, 65, 1)"></circle><circle r="5" cx="658.9" cy="396.52" fill="rgba(65, 65, 65, 1)"></circle><circle r="5" cx="647.69" cy="659.67" fill="rgba(65, 65, 65, 1)"></circle><circle r="5" cx="797.46" cy="229.48" fill="rgba(65, 65, 65, 1)"></circle><circle r="5" cx="824.7" cy="372.6" fill="rgba(65, 65, 65, 1)"></circle><circle r="5" cx="803.94" cy="521.54" fill="rgba(65, 65, 65, 1)"></circle><circle r="5" cx="850.15" cy="659.52" fill="rgba(65, 65, 65, 1)"></circle><circle r="5" cx="956.06" cy="-107.11" fill="rgba(65, 65, 65, 1)"></circle><circle r="5" cx="1005.91" cy="200.46" fill="rgba(65, 65, 65, 1)"></circle><circle r="5" cx="945.99" cy="356.57" fill="rgba(65, 65, 65, 1)"></circle><circle r="5" cx="950.8" cy="561.17" fill="rgba(65, 65, 65, 1)"></circle><circle r="5" cx="1009.42" cy="680.58" fill="rgba(65, 65, 65, 1)"></circle><circle r="5" cx="1115.51" cy="-94.2" fill="rgba(65, 65, 65, 1)"></circle><circle r="5" cx="1113.98" cy="53.92" fill="rgba(65, 65, 65, 1)"></circle><circle r="5" cx="1149.87" cy="251.64" fill="rgba(65, 65, 65, 1)"></circle><circle r="5" cx="1088.19" cy="406.61" fill="rgba(65, 65, 65, 1)"></circle><circle r="5" cx="1122.08" cy="513.38" fill="rgba(65, 65, 65, 1)"></circle><circle r="5" cx="1162.46" cy="692.87" fill="rgba(65, 65, 65, 1)"></circle><circle r="5" cx="1273.61" cy="-59.55" fill="rgba(65, 65, 65, 1)"></circle><circle r="5" cx="1273.67" cy="83.86" fill="rgba(65, 65, 65, 1)"></circle><circle r="5" cx="1312.43" cy="242.47" fill="rgba(65, 65, 65, 1)"></circle><circle r="5" cx="1289.27" cy="355.35" fill="rgba(65, 65, 65, 1)"></circle><circle r="5" cx="1300.74" cy="496.47" fill="rgba(65, 65, 65, 1)"></circle><circle r="5" cx="1308.88" cy="712.16" fill="rgba(65, 65, 65, 1)"></circle><circle r="5" cx="1417.84" cy="-46.84" fill="rgba(65, 65, 65, 1)"></circle><circle r="5" cx="1457.06" cy="40.87" fill="rgba(65, 65, 65, 1)"></circle><circle r="5" cx="1443.12" cy="204.96" fill="rgba(65, 65, 65, 1)"></circle><circle r="5" cx="1401.74" cy="350.83" fill="rgba(65, 65, 65, 1)"></circle><circle r="5" cx="1396.26" cy="555.06" fill="rgba(65, 65, 65, 1)"></circle><circle r="5" cx="1397.82" cy="674.92" fill="rgba(65, 65, 65, 1)"></circle><circle r="5" cx="1541.74" cy="-64.2" fill="rgba(65, 65, 65, 1)"></circle><circle r="5" cx="1541.29" cy="85.41" fill="rgba(65, 65, 65, 1)"></circle><circle r="5" cx="1545.86" cy="191.94" fill="rgba(65, 65, 65, 1)"></circle><circle r="5" cx="1561.21" cy="405.21" fill="rgba(65, 65, 65, 1)"></circle><circle r="5" cx="1542.09" cy="547.67" fill="rgba(65, 65, 65, 1)"></circle><circle r="5" cx="1575.37" cy="663.32" fill="rgba(65, 65, 65, 1)"></circle><path d="M63.58 681.73L63.58 681.73" stroke="hsl(240, 100%, 100%)" stroke-width="1.5"></path><path d="M63.58 681.73L-84.61 661.54" stroke="hsl(240, 100%, 100%)" stroke-width="1.5"></path><path d="M63.58 681.73L-52.76 555.03" stroke="hsl(240, 100%, 100%)" stroke-width="1.5"></path><path d="M63.58 681.73L47.79 493.78" stroke="hsl(240, 100%, 100%)" stroke-width="1.5"></path><path d="M249.03 640.05L249.03 640.05" stroke="hsl(240, 100%, 100%)" stroke-width="1.5"></path><path d="M249.03 640.05L343.03 665.45" stroke="hsl(240, 100%, 100%)" stroke-width="1.5"></path><path d="M694.4 691.97L694.4 691.97" stroke="hsl(240, 100%, 100%)" stroke-width="1.5"></path><path d="M694.4 691.97L802.57 694.42" stroke="hsl(240, 100%, 100%)" stroke-width="1.5"></path><path d="M694.4 691.97L682.32 557.12" stroke="hsl(240, 100%, 100%)" stroke-width="1.5"></path><path d="M1567.79 368.04L1567.79 368.04" stroke="hsl(240, 100%, 100%)" stroke-width="1.5"></path><path d="M1567.79 368.04L1552.21 505.15" stroke="hsl(240, 100%, 100%)" stroke-width="1.5"></path><path d="M1567.79 368.04L1419.13 392.7" stroke="hsl(240, 100%, 100%)" stroke-width="1.5"></path><path d="M-52.76 555.03L-52.76 555.03" stroke="hsl(240, 100%, 100%)" stroke-width="1.5"></path><path d="M-52.76 555.03L-84.61 661.54" stroke="hsl(240, 100%, 100%)" stroke-width="1.5"></path><path d="M-52.76 555.03L47.79 493.78" stroke="hsl(240, 100%, 100%)" stroke-width="1.5"></path><path d="M-84.61 661.54L-84.61 661.54" stroke="hsl(240, 100%, 100%)" stroke-width="1.5"></path><path d="M-84.61 661.54L47.79 493.78" stroke="hsl(240, 100%, 100%)" stroke-width="1.5"></path><path d="M-84.61 661.54L249.03 640.05" stroke="hsl(240, 100%, 100%)" stroke-width="1.5"></path><path d="M47.79 493.78L47.79 493.78" stroke="hsl(240, 100%, 100%)" stroke-width="1.5"></path><path d="M47.79 493.78L243.74 540.24" stroke="hsl(240, 100%, 100%)" stroke-width="1.5"></path><path d="M47.79 493.78L249.03 640.05" stroke="hsl(240, 100%, 100%)" stroke-width="1.5"></path><path d="M47.79 493.78L343.03 665.45" stroke="hsl(240, 100%, 100%)" stroke-width="1.5"></path><path d="M243.74 540.24L243.74 540.24" stroke="hsl(240, 100%, 100%)" stroke-width="1.5"></path><path d="M243.74 540.24L249.03 640.05" stroke="hsl(240, 100%, 100%)" stroke-width="1.5"></path><path d="M243.74 540.24L402.5 522.13" stroke="hsl(240, 100%, 100%)" stroke-width="1.5"></path><path d="M243.74 540.24L343.03 665.45" stroke="hsl(240, 100%, 100%)" stroke-width="1.5"></path><path d="M402.5 522.13L402.5 522.13" stroke="hsl(240, 100%, 100%)" stroke-width="1.5"></path><path d="M402.5 522.13L343.03 665.45" stroke="hsl(240, 100%, 100%)" stroke-width="1.5"></path><path d="M402.5 522.13L560.19 514.06" stroke="hsl(240, 100%, 100%)" stroke-width="1.5"></path><path d="M343.03 665.45L343.03 665.45" stroke="hsl(240, 100%, 100%)" stroke-width="1.5"></path><path d="M343.03 665.45L494.24 678.09" stroke="hsl(240, 100%, 100%)" stroke-width="1.5"></path><path d="M343.03 665.45L560.19 514.06" stroke="hsl(240, 100%, 100%)" stroke-width="1.5"></path><path d="M343.03 665.45L63.58 681.73" stroke="hsl(240, 100%, 100%)" stroke-width="1.5"></path><path d="M560.19 514.06L560.19 514.06" stroke="hsl(240, 100%, 100%)" stroke-width="1.5"></path><path d="M560.19 514.06L682.32 557.12" stroke="hsl(240, 100%, 100%)" stroke-width="1.5"></path><path d="M560.19 514.06L494.24 678.09" stroke="hsl(240, 100%, 100%)" stroke-width="1.5"></path><path d="M494.24 678.09L494.24 678.09" stroke="hsl(240, 100%, 100%)" stroke-width="1.5"></path><path d="M494.24 678.09L402.5 522.13" stroke="hsl(240, 100%, 100%)" stroke-width="1.5"></path><path d="M494.24 678.09L694.4 691.97" stroke="hsl(240, 100%, 100%)" stroke-width="1.5"></path><path d="M494.24 678.09L682.32 557.12" stroke="hsl(240, 100%, 100%)" stroke-width="1.5"></path><path d="M710.48 378.93L710.48 378.93" stroke="hsl(240, 100%, 100%)" stroke-width="1.5"></path><path d="M710.48 378.93L682.32 557.12" stroke="hsl(240, 100%, 100%)" stroke-width="1.5"></path><path d="M710.48 378.93L791.39 561.12" stroke="hsl(240, 100%, 100%)" stroke-width="1.5"></path><path d="M682.32 557.12L682.32 557.12" stroke="hsl(240, 100%, 100%)" stroke-width="1.5"></path><path d="M682.32 557.12L791.39 561.12" stroke="hsl(240, 100%, 100%)" stroke-width="1.5"></path><path d="M682.32 557.12L802.57 694.42" stroke="hsl(240, 100%, 100%)" stroke-width="1.5"></path><path d="M791.39 561.12L791.39 561.12" stroke="hsl(240, 100%, 100%)" stroke-width="1.5"></path><path d="M791.39 561.12L802.57 694.42" stroke="hsl(240, 100%, 100%)" stroke-width="1.5"></path><path d="M791.39 561.12L694.4 691.97" stroke="hsl(240, 100%, 100%)" stroke-width="1.5"></path><path d="M791.39 561.12L981.84 664.95" stroke="hsl(240, 100%, 100%)" stroke-width="1.5"></path><path d="M802.57 694.42L802.57 694.42" stroke="hsl(240, 100%, 100%)" stroke-width="1.5"></path><path d="M1011.72 412.07L1011.72 412.07" stroke="hsl(240, 100%, 100%)" stroke-width="1.5"></path><path d="M1011.72 412.07L999.51 493.09" stroke="hsl(240, 100%, 100%)" stroke-width="1.5"></path><path d="M1011.72 412.07L1100.52 526.9" stroke="hsl(240, 100%, 100%)" stroke-width="1.5"></path><path d="M1011.72 412.07L1151.89 365.92" stroke="hsl(240, 100%, 100%)" stroke-width="1.5"></path><path d="M1011.72 412.07L1125.91 246.48" stroke="hsl(240, 100%, 100%)" stroke-width="1.5"></path><path d="M1011.72 412.07L981.84 664.95" stroke="hsl(240, 100%, 100%)" stroke-width="1.5"></path><path d="M1011.72 412.07L791.39 561.12" stroke="hsl(240, 100%, 100%)" stroke-width="1.5"></path><path d="M999.51 493.09L999.51 493.09" stroke="hsl(240, 100%, 100%)" stroke-width="1.5"></path><path d="M999.51 493.09L1100.52 526.9" stroke="hsl(240, 100%, 100%)" stroke-width="1.5"></path><path d="M981.84 664.95L981.84 664.95" stroke="hsl(240, 100%, 100%)" stroke-width="1.5"></path><path d="M981.84 664.95L999.51 493.09" stroke="hsl(240, 100%, 100%)" stroke-width="1.5"></path><path d="M981.84 664.95L802.57 694.42" stroke="hsl(240, 100%, 100%)" stroke-width="1.5"></path><path d="M981.84 664.95L1100.52 526.9" stroke="hsl(240, 100%, 100%)" stroke-width="1.5"></path><path d="M981.84 664.95L694.4 691.97" stroke="hsl(240, 100%, 100%)" stroke-width="1.5"></path><path d="M1125.91 246.48L1125.91 246.48" stroke="hsl(240, 100%, 100%)" stroke-width="1.5"></path><path d="M1125.91 246.48L1151.89 365.92" stroke="hsl(240, 100%, 100%)" stroke-width="1.5"></path><path d="M1125.91 246.48L1311.61 221.34" stroke="hsl(240, 100%, 100%)" stroke-width="1.5"></path><path d="M1125.91 246.48L1301.67 368.59" stroke="hsl(240, 100%, 100%)" stroke-width="1.5"></path><path d="M1125.91 246.48L1287.78 46.25" stroke="hsl(240, 100%, 100%)" stroke-width="1.5"></path><path d="M1151.89 365.92L1151.89 365.92" stroke="hsl(240, 100%, 100%)" stroke-width="1.5"></path><path d="M1151.89 365.92L1301.67 368.59" stroke="hsl(240, 100%, 100%)" stroke-width="1.5"></path><path d="M1151.89 365.92L1100.52 526.9" stroke="hsl(240, 100%, 100%)" stroke-width="1.5"></path><path d="M1100.52 526.9L1100.52 526.9" stroke="hsl(240, 100%, 100%)" stroke-width="1.5"></path><path d="M1100.52 526.9L1270.75 544.37" stroke="hsl(240, 100%, 100%)" stroke-width="1.5"></path><path d="M1251.42 -71.61L1251.42 -71.61" stroke="hsl(240, 100%, 100%)" stroke-width="1.5"></path><path d="M1251.42 -71.61L1287.78 46.25" stroke="hsl(240, 100%, 100%)" stroke-width="1.5"></path><path d="M1251.42 -71.61L1402.93 -59.75" stroke="hsl(240, 100%, 100%)" stroke-width="1.5"></path><path d="M1287.78 46.25L1287.78 46.25" stroke="hsl(240, 100%, 100%)" stroke-width="1.5"></path><path d="M1287.78 46.25L1411.31 44.07" stroke="hsl(240, 100%, 100%)" stroke-width="1.5"></path><path d="M1287.78 46.25L1402.93 -59.75" stroke="hsl(240, 100%, 100%)" stroke-width="1.5"></path><path d="M1287.78 46.25L1311.61 221.34" stroke="hsl(240, 100%, 100%)" stroke-width="1.5"></path><path d="M1287.78 46.25L1417.3 260.65" stroke="hsl(240, 100%, 100%)" stroke-width="1.5"></path><path d="M1311.61 221.34L1311.61 221.34" stroke="hsl(240, 100%, 100%)" stroke-width="1.5"></path><path d="M1311.61 221.34L1417.3 260.65" stroke="hsl(240, 100%, 100%)" stroke-width="1.5"></path><path d="M1311.61 221.34L1301.67 368.59" stroke="hsl(240, 100%, 100%)" stroke-width="1.5"></path><path d="M1311.61 221.34L1419.13 392.7" stroke="hsl(240, 100%, 100%)" stroke-width="1.5"></path><path d="M1311.61 221.34L1411.31 44.07" stroke="hsl(240, 100%, 100%)" stroke-width="1.5"></path><path d="M1301.67 368.59L1301.67 368.59" stroke="hsl(240, 100%, 100%)" stroke-width="1.5"></path><path d="M1301.67 368.59L1419.13 392.7" stroke="hsl(240, 100%, 100%)" stroke-width="1.5"></path><path d="M1270.75 544.37L1270.75 544.37" stroke="hsl(240, 100%, 100%)" stroke-width="1.5"></path><path d="M1270.75 544.37L1428.45 505.4" stroke="hsl(240, 100%, 100%)" stroke-width="1.5"></path><path d="M1270.75 544.37L1301.67 368.59" stroke="hsl(240, 100%, 100%)" stroke-width="1.5"></path><path d="M1402.93 -59.75L1402.93 -59.75" stroke="hsl(240, 100%, 100%)" stroke-width="1.5"></path><path d="M1402.93 -59.75L1411.31 44.07" stroke="hsl(240, 100%, 100%)" stroke-width="1.5"></path><path d="M1402.93 -59.75L1610.14 -64.16" stroke="hsl(240, 100%, 100%)" stroke-width="1.5"></path><path d="M1402.93 -59.75L1560.77 75.08" stroke="hsl(240, 100%, 100%)" stroke-width="1.5"></path><path d="M1411.31 44.07L1411.31 44.07" stroke="hsl(240, 100%, 100%)" stroke-width="1.5"></path><path d="M1411.31 44.07L1560.77 75.08" stroke="hsl(240, 100%, 100%)" stroke-width="1.5"></path><path d="M1411.31 44.07L1251.42 -71.61" stroke="hsl(240, 100%, 100%)" stroke-width="1.5"></path><path d="M1411.31 44.07L1553.68 198.43" stroke="hsl(240, 100%, 100%)" stroke-width="1.5"></path><path d="M1417.3 260.65L1417.3 260.65" stroke="hsl(240, 100%, 100%)" stroke-width="1.5"></path><path d="M1417.3 260.65L1419.13 392.7" stroke="hsl(240, 100%, 100%)" stroke-width="1.5"></path><path d="M1417.3 260.65L1553.68 198.43" stroke="hsl(240, 100%, 100%)" stroke-width="1.5"></path><path d="M1419.13 392.7L1419.13 392.7" stroke="hsl(240, 100%, 100%)" stroke-width="1.5"></path><path d="M1419.13 392.7L1428.45 505.4" stroke="hsl(240, 100%, 100%)" stroke-width="1.5"></path><path d="M1419.13 392.7L1552.21 505.15" stroke="hsl(240, 100%, 100%)" stroke-width="1.5"></path><path d="M1428.45 505.4L1428.45 505.4" stroke="hsl(240, 100%, 100%)" stroke-width="1.5"></path><path d="M1428.45 505.4L1552.21 505.15" stroke="hsl(240, 100%, 100%)" stroke-width="1.5"></path><path d="M1428.45 505.4L1398.71 688.67" stroke="hsl(240, 100%, 100%)" stroke-width="1.5"></path><path d="M1428.45 505.4L1301.67 368.59" stroke="hsl(240, 100%, 100%)" stroke-width="1.5"></path><path d="M1428.45 505.4L1567.79 368.04" stroke="hsl(240, 100%, 100%)" stroke-width="1.5"></path><path d="M1398.71 688.67L1398.71 688.67" stroke="hsl(240, 100%, 100%)" stroke-width="1.5"></path><path d="M1398.71 688.67L1270.75 544.37" stroke="hsl(240, 100%, 100%)" stroke-width="1.5"></path><path d="M1610.14 -64.16L1610.14 -64.16" stroke="hsl(240, 100%, 100%)" stroke-width="1.5"></path><path d="M1610.14 -64.16L1560.77 75.08" stroke="hsl(240, 100%, 100%)" stroke-width="1.5"></path><path d="M1610.14 -64.16L1411.31 44.07" stroke="hsl(240, 100%, 100%)" stroke-width="1.5"></path><path d="M1610.14 -64.16L1553.68 198.43" stroke="hsl(240, 100%, 100%)" stroke-width="1.5"></path><path d="M1560.77 75.08L1560.77 75.08" stroke="hsl(240, 100%, 100%)" stroke-width="1.5"></path><path d="M1560.77 75.08L1553.68 198.43" stroke="hsl(240, 100%, 100%)" stroke-width="1.5"></path><path d="M1560.77 75.08L1417.3 260.65" stroke="hsl(240, 100%, 100%)" stroke-width="1.5"></path><path d="M1553.68 198.43L1553.68 198.43" stroke="hsl(240, 100%, 100%)" stroke-width="1.5"></path><path d="M1552.21 505.15L1552.21 505.15" stroke="hsl(240, 100%, 100%)" stroke-width="1.5"></path><circle r="25" cx="63.58" cy="681.73" fill="url(#SvgjsRadialGradient1007)"></circle><circle r="25" cx="249.03" cy="640.05" fill="url(#SvgjsRadialGradient1007)"></circle><circle r="25" cx="694.4" cy="691.97" fill="url(#SvgjsRadialGradient1007)"></circle><circle r="25" cx="1567.79" cy="368.04" fill="url(#SvgjsRadialGradient1007)"></circle><circle r="5" cx="-52.76" cy="555.03" fill="#fcfcff"></circle><circle r="5" cx="-84.61" cy="661.54" fill="#fcfcff"></circle><circle r="5" cx="47.79" cy="493.78" fill="#fcfcff"></circle><circle r="5" cx="243.74" cy="540.24" fill="#fcfcff"></circle><circle r="5" cx="402.5" cy="522.13" fill="#fcfcff"></circle><circle r="5" cx="343.03" cy="665.45" fill="#fcfcff"></circle><circle r="5" cx="560.19" cy="514.06" fill="#fcfcff"></circle><circle r="5" cx="494.24" cy="678.09" fill="#fcfcff"></circle><circle r="5" cx="710.48" cy="378.93" fill="#fcfcff"></circle><circle r="5" cx="682.32" cy="557.12" fill="#fcfcff"></circle><circle r="5" cx="791.39" cy="561.12" fill="#fcfcff"></circle><circle r="5" cx="802.57" cy="694.42" fill="#fcfcff"></circle><circle r="5" cx="1011.72" cy="412.07" fill="#fcfcff"></circle><circle r="5" cx="999.51" cy="493.09" fill="#fcfcff"></circle><circle r="5" cx="981.84" cy="664.95" fill="#fcfcff"></circle><circle r="5" cx="1125.91" cy="246.48" fill="#fcfcff"></circle><circle r="5" cx="1151.89" cy="365.92" fill="#fcfcff"></circle><circle r="5" cx="1100.52" cy="526.9" fill="#fcfcff"></circle><circle r="5" cx="1251.42" cy="-71.61" fill="#fcfcff"></circle><circle r="5" cx="1287.78" cy="46.25" fill="#fcfcff"></circle><circle r="5" cx="1311.61" cy="221.34" fill="#fcfcff"></circle><circle r="5" cx="1301.67" cy="368.59" fill="#fcfcff"></circle><circle r="5" cx="1270.75" cy="544.37" fill="#fcfcff"></circle><circle r="5" cx="1402.93" cy="-59.75" fill="#fcfcff"></circle><circle r="5" cx="1411.31" cy="44.07" fill="#fcfcff"></circle><circle r="5" cx="1417.3" cy="260.65" fill="#fcfcff"></circle><circle r="5" cx="1419.13" cy="392.7" fill="#fcfcff"></circle><circle r="5" cx="1428.45" cy="505.4" fill="#fcfcff"></circle><circle r="5" cx="1398.71" cy="688.67" fill="#fcfcff"></circle><circle r="5" cx="1610.14" cy="-64.16" fill="#fcfcff"></circle><circle r="5" cx="1560.77" cy="75.08" fill="#fcfcff"></circle><circle r="5" cx="1553.68" cy="198.43" fill="#fcfcff"></circle><circle r="5" cx="1552.21" cy="505.15" fill="#fcfcff"></circle></g><defs><mask id="SvgjsMask1006"><rect width="1440" height="560" fill="#ffffff"></rect></mask><radialGradient id="SvgjsRadialGradient1007"><stop stop-color="#ffffff" offset="0.1"></stop><stop stop-color="rgba(248, 248, 255, 1)" offset="0.2"></stop><stop stop-color="rgba(248, 248, 255, 0)" offset="1"></stop></radialGradient></defs></svg>