<svg xmlns="http://www.w3.org/2000/svg" version="1.1" xmlns:xlink="http://www.w3.org/1999/xlink" xmlns:svgjs="http://svgjs.com/svgjs" width="1440" height="560" preserveAspectRatio="none" viewBox="0 0 1440 560"><g mask="url(&quot;#SvgjsMask1007&quot;)" fill="none"><path d="M -788.0086072980672,341 C -692.01,326.8 -500.01,260.8 -308.0086072980672,270 C -116.01,279.2 -20.01,395.8 171.9913927019328,387 C 363.99,378.2 459.99,232.2 651.9913927019328,226 C 843.99,219.8 974.39,390 1131.991392701933,356 C 1289.59,322 1378.4,116 1440,56" stroke="rgba(196, 199, 202, 0.58)" stroke-width="2"></path><path d="M -808.3857420298049,73 C -712.39,138.8 -520.39,394.2 -328.3857420298049,402 C -136.39,409.8 -40.39,131.8 151.61425797019513,112 C 343.61,92.2 439.61,303.4 631.6142579701951,303 C 823.61,302.6 949.94,96.2 1111.614257970195,110 C 1273.29,123.8 1374.32,319.6 1440,372" stroke="rgba(65, 65, 65, 1)" stroke-width="2"></path><path d="M -430.7113267880471,149 C -334.71,211.8 -142.71,450 49.28867321195291,463 C 241.29,476 337.29,233 529.2886732119529,214 C 721.29,195 817.29,384.8 1009.2886732119529,368 C 1201.29,351.2 1403.15,136.8 1489.288673211953,130 C 1575.43,123.2 1449.86,293.2 1440,334" stroke="rgba(196, 199, 202, 0.58)" stroke-width="2"></path><path d="M -216.17134857977612,195 C -120.17,249.8 71.83,490 263.8286514202239,469 C 455.83,448 551.83,94.2 743.8286514202239,90 C 935.83,85.8 1031.83,420 1223.8286514202239,448 C 1415.83,476 1660.59,245.8 1703.8286514202239,230 C 1747.06,214.2 1492.77,341.2 1440,369" stroke="rgba(196, 199, 202, 0.58)" stroke-width="2"></path></g><defs><mask id="SvgjsMask1007"><rect width="1440" height="560" fill="#ffffff"></rect></mask></defs></svg>