<svg xmlns="http://www.w3.org/2000/svg" version="1.1" xmlns:xlink="http://www.w3.org/1999/xlink" xmlns:svgjs="http://svgjs.com/svgjs" width="1440" height="560" preserveAspectRatio="none" viewBox="0 0 1440 560"><g mask="url(&quot;#SvgjsMask1017&quot;)" fill="none"><path d="M -251.45457698153578,99 C -155.45,163 36.55,426.6 228.54542301846422,419 C 420.55,411.4 516.55,48.4 708.5454230184642,61 C 900.55,73.6 996.55,457 1188.5454230184641,482 C 1380.55,507 1618.25,202.2 1668.5454230184641,186 C 1718.84,169.8 1485.71,358 1440,401" stroke="rgba(248, 248, 255, 1)" stroke-width="2"></path><path d="M -477.29482295461156,400 C -381.29,342.4 -189.29,123.6 2.7051770453884316,112 C 194.71,100.4 290.71,319 482.70517704538844,342 C 674.71,365 770.71,205.6 962.7051770453884,227 C 1154.71,248.4 1347.25,467.6 1442.7051770453884,449 C 1538.16,430.4 1440.54,197 1440,134" stroke="rgba(248, 248, 255, 1)" stroke-width="2"></path><path d="M -807.7699200769038,366 C -711.77,314.8 -519.77,91 -327.76992007690376,110 C -135.77,129 -39.77,437.8 152.23007992309624,461 C 344.23,484.2 440.23,251.8 632.2300799230962,226 C 824.23,200.2 950.68,358.4 1112.2300799230961,332 C 1273.78,305.6 1374.45,141.6 1440,94" stroke="rgba(248, 248, 255, 1)" stroke-width="2"></path><path d="M -540.6309899859485,167 C -444.63,233 -252.63,497.6 -60.630989985948496,497 C 131.37,496.4 227.37,189.6 419.3690100140515,164 C 611.37,138.4 707.37,359.4 899.3690100140515,369 C 1091.37,378.6 1271.24,200.4 1379.3690100140516,212 C 1487.5,223.6 1427.87,384 1440,427" stroke="rgba(248, 248, 255, 1)" stroke-width="2"></path></g><defs><mask id="SvgjsMask1017"><rect width="1440" height="560" fill="#ffffff"></rect></mask></defs></svg>